<?xml version="1.0" standalone="no"?>
<!DOCTYPE svg PUBLIC "-//W3C//DTD SVG 20010904//EN"
 "http://www.w3.org/TR/2001/REC-SVG-20010904/DTD/svg10.dtd">
<svg version="1.0" xmlns="http://www.w3.org/2000/svg"
 width="447.000000pt" height="447.000000pt" viewBox="0 0 447.000000 447.000000"
 preserveAspectRatio="xMidYMid meet">
<metadata>
Created by potrace 1.11, written by Peter Selinger 2001-2013
</metadata>
<g transform="translate(0.000000,447.000000) scale(0.100000,-0.100000)"
fill="#000000" stroke="none">
<path d="M2171 4139 c-157 -19 -304 -74 -416 -154 -73 -52 -153 -138 -186
-200 l-23 -43 43 -62 c24 -34 42 -62 40 -63 -2 -2 -21 -10 -43 -20 -47 -22
-48 -21 -116 83 -46 70 -57 81 -94 91 -22 6 -72 9 -111 7 -169 -11 -294 -128
-438 -407 -32 -64 -73 -131 -91 -150 -57 -61 -133 -78 -193 -41 l-33 20 0 -43
c0 -54 36 -126 75 -152 l31 -19 -25 -61 c-44 -109 -30 -228 41 -338 39 -61 49
-137 24 -185 -9 -18 -18 -32 -19 -32 -1 0 -19 -6 -41 -14 l-38 -13 44 -22 c52
-25 145 -28 187 -7 26 14 28 13 54 -20 44 -54 137 -91 194 -77 22 5 22 6 -7
30 -33 28 -42 60 -12 48 115 -49 238 -75 347 -75 90 0 106 8 58 30 -39 18 -95
69 -62 57 69 -24 159 -47 227 -57 79 -12 254 -11 266 1 4 3 2 19 -4 34 -9 24
-8 26 7 20 121 -53 255 -67 398 -42 49 9 92 14 95 11 3 -3 -6 -14 -19 -25
l-23 -19 60 0 c93 0 219 28 335 75 28 12 20 -14 -15 -48 l-33 -30 123 6 c129
7 238 27 309 58 24 10 43 15 43 12 0 -4 -14 -22 -31 -39 l-32 -33 59 5 c92 9
212 41 286 78 37 18 70 31 73 28 11 -11 4 -68 -11 -90 -15 -21 -14 -22 17 -22
35 0 119 36 119 51 0 5 7 9 15 9 18 0 20 -41 3 -58 -21 -21 5 -13 43 14 43 29
73 85 66 120 -4 22 -1 24 39 24 54 0 91 14 127 48 37 35 34 48 -13 55 -23 3
-52 13 -66 22 l-25 16 42 22 c23 12 49 32 57 44 13 21 13 22 -21 16 -28 -4
-40 0 -67 24 -41 37 -49 78 -43 230 6 144 -10 222 -68 334 -66 126 -208 265
-303 296 l-30 9 38 23 c35 22 96 93 96 113 0 4 -22 8 -48 8 -75 0 -192 45
-289 111 -23 16 -45 29 -50 29 -4 0 -39 -47 -78 -104 l-70 -103 -40 18 c-22
10 -39 25 -39 33 1 8 31 57 68 110 36 52 66 99 66 104 0 17 -197 139 -315 197
-60 29 -147 63 -191 74 -96 25 -239 34 -343 20z m-287 -511 c9 -35 89 -136
143 -180 87 -73 220 -126 428 -173 l30 -6 -41 43 c-42 43 -78 102 -72 118 2 5
30 -9 63 -31 33 -21 74 -44 92 -50 18 -6 33 -13 33 -15 0 -3 -18 -26 -39 -52
-139 -165 -131 -380 19 -534 36 -37 56 -67 58 -85 3 -43 29 -73 62 -73 17 0
30 5 30 10 0 6 -4 10 -9 10 -10 0 -26 39 -19 45 2 2 22 -2 43 -9 45 -16 53
-36 35 -91 -18 -56 -81 -79 -147 -54 -42 16 -82 66 -137 171 -56 105 -78 138
-109 155 -32 18 -45 16 -72 -12 -30 -30 -32 -59 -4 -88 11 -12 38 -51 60 -87
91 -152 184 -222 293 -222 64 0 108 15 138 49 26 28 48 88 48 128 0 32 3 35
28 35 43 0 129 26 175 53 83 49 187 187 187 250 0 14 10 17 60 17 l60 0 0 31
c0 46 13 29 56 -73 l39 -93 8 70 c4 39 5 90 1 114 -3 24 -2 41 3 38 18 -11
112 -215 143 -307 25 -76 70 -289 70 -331 0 -5 -575 -9 -1396 -9 l-1396 0 7
53 c10 84 39 217 46 217 4 0 9 -6 12 -14 8 -19 88 -73 120 -81 l27 -7 -16 43
c-9 24 -18 83 -21 130 -5 71 -2 99 16 155 12 38 27 80 35 93 12 23 13 22 19
-24 8 -57 58 -152 99 -191 25 -23 29 -25 23 -9 -48 122 -21 248 89 410 47 70
159 185 181 185 21 0 19 -55 -5 -108 l-19 -43 30 18 c55 32 109 96 175 204 43
72 85 126 129 168 36 33 70 61 74 61 5 0 12 -10 15 -22z m866 -175 l55 -27
-58 -14 c-65 -16 -73 -12 -83 36 -6 27 -4 32 13 32 10 0 44 -12 73 -27z m169
-128 c14 -7 57 -45 94 -84 70 -72 84 -83 73 -56 -3 8 -3 15 0 15 3 0 15 -21
27 -47 32 -73 31 -190 -4 -263 -48 -102 -147 -174 -256 -187 -46 -5 -51 -3
-86 32 -36 36 -40 37 -88 32 -47 -6 -52 -4 -88 28 -21 20 -51 62 -67 97 -40
90 -39 184 5 273 19 38 49 79 73 100 36 30 49 35 91 35 42 0 48 2 37 15 -10
12 -7 15 17 20 15 4 33 8 38 11 18 7 108 -7 134 -21z m294 -130 c28 -35 60
-77 70 -94 l18 -31 -44 0 -45 0 -21 68 c-11 37 -32 84 -47 105 -24 35 -24 38
-5 27 12 -6 45 -39 74 -75z"/>
<path d="M2134 2821 c-22 -14 -50 -54 -95 -136 -82 -151 -126 -195 -195 -195
-61 0 -104 50 -104 121 0 37 39 83 63 74 22 -9 27 -66 6 -73 -20 -8 -7 -22 20
-22 77 0 84 143 8 170 -39 13 -60 13 -91 -2 -70 -31 -90 -197 -33 -272 38 -49
81 -69 147 -69 115 1 187 55 300 225 84 128 88 141 47 178 -26 25 -34 25 -73
1z"/>
<path d="M2050 2013 c18 -32 45 -74 61 -94 l28 -36 58 9 c103 16 192 72 236
147 l18 31 -216 0 -217 0 32 -57z"/>
<path d="M2096 1524 c-24 -23 -20 -61 9 -80 31 -20 63 -10 76 23 20 53 -45 97
-85 57z"/>
<path d="M2277 1522 c-24 -27 -21 -59 8 -78 33 -21 72 -6 81 31 13 52 -53 86
-89 47z"/>
<path d="M1123 1337 c-4 -7 34 -77 48 -87 4 -3 32 -3 63 -2 l56 4 0 46 0 47
-81 0 c-44 0 -83 -3 -86 -8z"/>
<path d="M3210 1298 l0 -47 145 -3 c80 -2 150 -1 155 0 6 2 10 23 10 47 l0 44
-155 3 -155 3 0 -47z"/>
<path d="M1013 1328 c-29 -9 -33 -15 -33 -44 0 -20 5 -34 13 -35 81 -3 137 -3
137 0 0 2 -12 23 -27 47 -29 46 -37 49 -90 32z"/>
<path d="M2091 1311 c-18 -32 -13 -59 13 -76 44 -29 96 18 73 66 -17 32 -71
39 -86 10z"/>
<path d="M2275 1310 c-36 -39 8 -99 60 -80 11 4 24 19 29 33 19 53 -50 90 -89
47z"/>
<path d="M2097 1132 c-32 -35 -11 -92 34 -92 30 0 61 37 54 63 -14 46 -60 61
-88 29z"/>
<path d="M2280 1130 c-11 -11 -20 -26 -20 -33 0 -24 31 -57 54 -57 26 0 56 28
56 53 0 21 -35 57 -55 57 -8 0 -24 -9 -35 -20z"/>
</g>
</svg>
